<svg xmlns="http://www.w3.org/2000/svg" xmlns:xlink="http://www.w3.org/1999/xlink" width="81" height="81" viewBox="0 0 81 81">
  <defs>
    <filter id="Rectangle_591" x="0" y="0" width="81" height="81" filterUnits="userSpaceOnUse">
      <feOffset dy="3" input="SourceAlpha"/>
      <feGaussianBlur stdDeviation="3" result="blur"/>
      <feFlood flood-opacity="0.161"/>
      <feComposite operator="in" in2="blur"/>
      <feComposite in="SourceGraphic"/>
    </filter>
    <filter id="Union_64" x="10.538" y="10.739" width="60.211" height="60.211" filterUnits="userSpaceOnUse">
      <feOffset dy="3" input="SourceAlpha"/>
      <feGaussianBlur stdDeviation="3" result="blur-2"/>
      <feFlood flood-opacity="0.161"/>
      <feComposite operator="in" in2="blur-2"/>
      <feComposite in="SourceGraphic"/>
    </filter>
  </defs>
  <g id="Remark_msg_android_browser" data-name="Remark msg_android_browser" transform="translate(-140 -134)">
    <g transform="matrix(1, 0, 0, 1, 140, 134)" filter="url(#Rectangle_591)">
      <rect id="Rectangle_591-2" data-name="Rectangle 591" width="60" height="60" rx="13.5" transform="translate(10.5 7.5)" fill="rgba(0,0,0,0)" stroke="#fff3e5" stroke-linecap="round" stroke-linejoin="round" stroke-miterlimit="10" stroke-width="3"/>
    </g>
    <g id="Group_6066" data-name="Group 6066" transform="translate(37.763 28.964)">
      <g transform="matrix(1, 0, 0, 1, 102.24, 105.04)" filter="url(#Union_64)">
        <path id="Union_64-2" data-name="Union 64" d="M20.606,41.211A20.606,20.606,0,1,1,41.211,20.606,20.628,20.628,0,0,1,20.606,41.211Zm0-1.738c1.9,0,3.945-3.249,5.148-8.559h-10.3c1.2,5.31,3.247,8.559,5.149,8.559Zm3.647-.354A18.913,18.913,0,0,0,36.4,30.914H27.532A20.7,20.7,0,0,1,24.252,39.119Zm-7.294,0a20.7,20.7,0,0,1-3.28-8.205H4.81A18.913,18.913,0,0,0,16.959,39.119Zm20.453-9.943a18.734,18.734,0,0,0,2.042-7.7H28.546a52.114,52.114,0,0,1-.685,7.7Zm-11.308,0a48.675,48.675,0,0,0,.7-7.7H14.4a48.664,48.664,0,0,0,.705,7.7Zm-12.755,0a52.1,52.1,0,0,1-.685-7.7H1.758a18.734,18.734,0,0,0,2.042,7.7Zm26.1-9.439a18.73,18.73,0,0,0-2.042-7.7h-9.55a52.1,52.1,0,0,1,.685,7.7Zm-12.645,0a48.662,48.662,0,0,0-.7-7.7h-11a48.652,48.652,0,0,0-.705,7.7Zm-14.145,0a52.09,52.09,0,0,1,.685-7.7H3.8a18.73,18.73,0,0,0-2.042,7.7ZM36.4,10.3A18.914,18.914,0,0,0,24.252,2.092a20.7,20.7,0,0,1,3.28,8.205Zm-10.647,0c-1.2-5.31-3.246-8.559-5.148-8.559S16.66,4.987,15.456,10.3Zm-12.076,0a20.7,20.7,0,0,1,3.28-8.205A18.913,18.913,0,0,0,4.81,10.3Z" transform="translate(20.04 17.24)" fill="#fff3e5" stroke="#fff3e5" stroke-linecap="round" stroke-linejoin="round" stroke-miterlimit="10" stroke-width="1"/>
      </g>
    </g>
  </g>
</svg>
