<svg xmlns="http://www.w3.org/2000/svg" xmlns:xlink="http://www.w3.org/1999/xlink" width="154.633" height="20.766" viewBox="0 0 154.633 20.766">
  <defs>
    <linearGradient id="linear-gradient" x1="0.5" x2="0.5" y2="1" gradientUnits="objectBoundingBox">
      <stop offset="0" stop-color="#f5cfb3"/>
      <stop offset="0.438" stop-color="#f8ceab"/>
      <stop offset="0.527" stop-color="#fcf6eb"/>
      <stop offset="0.601" stop-color="#f2bd8b"/>
      <stop offset="1" stop-color="#cf9868"/>
    </linearGradient>
  </defs>
  <path id="Path_29448" data-name="Path 29448" d="M10.25-10.727a14.318,14.318,0,0,0-2.585-3.1l-1.4.936A15.576,15.576,0,0,1,8.779-9.658ZM4.479-15.139A26,26,0,0,1,.468-6.315a11.687,11.687,0,0,1,.98,1.983,21.794,21.794,0,0,0,1.4-2.117V5.315h1.8V-10.126a45.516,45.516,0,0,0,1.582-4.523ZM9.247,1.3V-8.12H5.437v1.983h2.05V1.127a2.219,2.219,0,0,1-.891,1.8A6.33,6.33,0,0,1,7.576,4.6c.357-.423.914-.824,4.1-2.763-.134-.4-.357-1.114-.468-1.627ZM18.471-.9h-4.3V-2.795h4.3Zm-4.3,3.5V.636h4.3V2.6Zm1.381-13.569h1.983A23.685,23.685,0,0,1,15.909-8.5h-.357ZM21.212-6.65V-8.5h-3.03a29.382,29.382,0,0,0,2.9-5.5l-1.827-.49a23.878,23.878,0,0,1-1.381,2.963V-12.71H15.552v-2.362H13.659v2.362H11.007v1.738h2.651V-8.5h-3.32V-6.65h3.944A19.233,19.233,0,0,1,9.759-3.085a12.2,12.2,0,0,1,1.315,1.56c.468-.29.891-.6,1.337-.914V5.293h1.76V4.268h4.3V5.2H20.3v-9.67H14.773A27.018,27.018,0,0,0,16.8-6.65Zm21.836-3.543v-1.983H31.974c.267-.78.557-1.6.8-2.384l-2.139-.512c-.267.958-.579,1.938-.936,2.9H23.6v1.983h5.236a18.412,18.412,0,0,1-5.971,7.286A12.379,12.379,0,0,1,23.886-.968,16.8,16.8,0,0,0,26.27-2.951V5.36h2.094V-5.4a26.232,26.232,0,0,0,2.763-4.79Zm.379,7.776H37.812V-3.508a22.946,22.946,0,0,0,4.323-3.61L40.82-8.165l-.423.111H31.617v1.872H38.48A18.243,18.243,0,0,1,35.717-4.11v1.693h-5.9V-.478h5.9v3.52c0,.29-.089.379-.49.4-.356.022-1.671.022-2.986-.045a8.5,8.5,0,0,1,.624,1.983,11.93,11.93,0,0,0,3.9-.312c.824-.29,1.047-.869,1.047-1.983V-.478h5.615ZM52.852-4.2V-8.588h5.57V-4.2Zm12.7,0H60.605V-8.588h4.278v-1.983H60.138c.691-1.181,1.426-2.629,2.072-3.922L59.8-15.161a32.341,32.341,0,0,1-1.916,4.59H51.693l1.8-.758a17.5,17.5,0,0,0-2.273-3.81l-1.961.758a16.538,16.538,0,0,1,2.117,3.81H46.457v1.983H50.69V-4.2H45.7v1.983h4.813C50.133.035,49,2.218,45.744,3.845a8.944,8.944,0,0,1,1.493,1.693,9.333,9.333,0,0,0,5.481-7.754h5.7V5.36h2.184V-2.216h4.946ZM79.9-13.958a34.943,34.943,0,0,0,4.768,7.13H71.59a25.722,25.722,0,0,0,4.456-7.219l-2.206-.646A18.78,18.78,0,0,1,67.713-6.36a12.153,12.153,0,0,1,1.76,1.6,19.468,19.468,0,0,0,1.582-1.493v1.471h3.922c-.468,3.52-1.693,6.751-6.774,8.422a6.583,6.583,0,0,1,1.292,1.8C75.133,3.422,76.581-.478,77.16-4.778h5.459c-.245,5.08-.512,7.152-1.025,7.665a1.183,1.183,0,0,1-.936.267c-.512,0-1.8,0-3.142-.111a4.921,4.921,0,0,1,.668,2.072,24.481,24.481,0,0,0,3.454-.022,2.44,2.44,0,0,0,1.849-.869c.735-.869,1.047-3.431,1.337-10.116.022-.178.022-.49.022-.735A16.769,16.769,0,0,0,86.5-4.956a8.235,8.235,0,0,1,1.649-1.76,24.217,24.217,0,0,1-6.328-8.021Zm29.857.691h-8.333a15.3,15.3,0,0,0-.847-1.961l-2.139.379a16.763,16.763,0,0,1,.646,1.582H90.507v1.76h19.251Zm-14.483,4.5h9.782V-7.1H95.275ZM107.24-5.625v-4.635H93.225v4.635Zm2.83,5.08H101.2v-.29A31.873,31.873,0,0,0,107.909-3.4l-1.315-1.181-.49.089h-.557v.022H92.379V-2.84h10.428a30.871,30.871,0,0,1-3.788,1.114l.022.022h-.022V-.545H90.284v1.76h8.734V3.288c0,.334-.134.423-.557.446-.356,0-1.983.022-3.387-.045A7.248,7.248,0,0,1,95.81,5.4,18.6,18.6,0,0,0,100,5.159c.891-.245,1.2-.713,1.2-1.783V1.216h8.868Zm13.1-11.675h6.372V-2.3h2.072v-11.72h-10.45V-2.3h2.005ZM120.5-2.706c-.4-.468-1.849-2.161-2.7-3.075a21.313,21.313,0,0,0,2.451-4.88l-1.092-.735-.4.089h-2.005l1.515-.936a12.24,12.24,0,0,0-2.072-2.763l-1.582.914a14.85,14.85,0,0,1,1.916,2.785h-3.81v1.872h5.058a17.393,17.393,0,0,1-5.593,6.707,9.379,9.379,0,0,1,.869,2.094,15.987,15.987,0,0,0,2.295-2.05V5.382h1.983V-3.753c.691.936,1.448,2.005,1.849,2.7Zm8.266,6.239c-.535,0-.713-.178-.713-.78V-2.528h-1.27a16.551,16.551,0,0,0,.49-4.167v-4.033h-1.983v3.988c0,3.431-.624,7.709-6.217,10.606A7.287,7.287,0,0,1,120.409,5.4a12.273,12.273,0,0,0,5.726-5.949v3.52c0,1.627.646,2.094,2.273,2.094h1.8c2.05,0,2.317-.958,2.54-4.412a5.037,5.037,0,0,1-1.649-.78c-.067,3.03-.2,3.654-.869,3.654ZM145.587-9.836V.569h1.738V-8.276h4.991V.5h1.827V-9.836h-3.877c.245-.646.535-1.426.824-2.161h3.61v-1.8h-9.648V-12h4.1c-.223.713-.512,1.515-.78,2.161ZM142.913-5a13.037,13.037,0,0,1-2.094,4.813V-6.516h3.966V-8.343h-3.565v-2.451h3.053v-1.693h-3.053v-2.607h-1.827v6.751h-1.738v-4.813h-1.649v4.813h-1.537v1.827h4.456V.191h1.6a11.321,11.321,0,0,1-5.949,3.676,4.645,4.645,0,0,1,1.047,1.6c5.147-1.738,7.865-4.813,9.091-10.093Zm-6.528-.267a12.211,12.211,0,0,1-2.005,4.345,12.257,12.257,0,0,1,1.493.958A15.443,15.443,0,0,0,138.1-4.889ZM149-7.3c-.022,7.531-.2,9.937-5.437,11.319a4.925,4.925,0,0,1,.958,1.471c5.771-1.627,6.15-4.7,6.194-12.79Zm.668,9.135a34.953,34.953,0,0,1,4.211,3.61L155.1,4.157A39.294,39.294,0,0,0,150.823.7Z" transform="translate(-0.468 15.228)" fill="url(#linear-gradient)"/>
</svg>
