<svg xmlns="http://www.w3.org/2000/svg" width="10.374" height="12.898" viewBox="0 0 10.374 12.898">
  <g id="Group_279" data-name="Group 279" transform="translate(-349.45 -311.035)">
    <path id="Path_688" data-name="Path 688" d="M356.461,378.382h-5.852a.91.91,0,0,0-.909.909v8.376a.91.91,0,0,0,.909.909h5.852a.91.91,0,0,0,.909-.909v-8.376A.91.91,0,0,0,356.461,378.382Zm.252,9.285a.252.252,0,0,1-.252.252h-5.852a.252.252,0,0,1-.252-.252v-8.376a.252.252,0,0,1,.252-.252h5.852a.252.252,0,0,1,.252.252Z" transform="translate(0 -64.893)" fill="#f7d6a6" stroke="#f7d6a6" stroke-width="0.5"/>
    <path id="Path_689" data-name="Path 689" d="M423.561,311.285h-5.852a.91.91,0,0,0-.909.909v.244a.328.328,0,1,0,.657,0v-.244a.252.252,0,0,1,.252-.252h5.852a.252.252,0,0,1,.252.252v8.376a.252.252,0,0,1-.252.252h-.244a.328.328,0,0,0,0,.657h.244a.91.91,0,0,0,.909-.909v-8.376A.91.91,0,0,0,423.561,311.285Z" transform="translate(-64.896)" fill="#f7d6a6" stroke="#f7d6a6" stroke-width="0.5"/>
  </g>
</svg>
