<svg xmlns="http://www.w3.org/2000/svg" xmlns:xlink="http://www.w3.org/1999/xlink" width="176.316" height="12.852" viewBox="0 0 176.316 12.852">
  <defs>
    <linearGradient id="linear-gradient" x1="0.5" x2="0.5" y2="1" gradientUnits="objectBoundingBox">
      <stop offset="0" stop-color="#f5cfb3"/>
      <stop offset="0.516" stop-color="#ecc899"/>
      <stop offset="0.527" stop-color="#f8e8ca"/>
      <stop offset="0.833" stop-color="#f2bd8b"/>
      <stop offset="1" stop-color="#f69570"/>
    </linearGradient>
  </defs>
  <path id="Path_29612" data-name="Path 29612" d="M-87.262,0h.826l.392-3.192h2.072L-84.35,0h.84l.378-3.192h1.442v-.9h-1.33l.294-2.324h1.344v-.882h-1.246l.35-2.87h-.812l-.378,2.87H-85.54l.35-2.87h-.826l-.364,2.87h-1.428v.882h1.33l-.294,2.324h-1.344v.9h1.232Zm1.33-4.088.28-2.324h2.086l-.294,2.324Zm8.358-7.546a16.57,16.57,0,0,1-3,5.684,9.631,9.631,0,0,1,.546,1.064,15.486,15.486,0,0,0,1.288-1.82V1.078h1.008v-9.66a24.85,24.85,0,0,0,1.106-2.772Zm.966,10.514h.9V-7.826h-.9Zm7.35-8.2a6.64,6.64,0,0,1-1.988,1.96,6.843,6.843,0,0,1-1.918-1.96Zm.7-.91-.168.042H-72.66a13.607,13.607,0,0,0,.616-1.288L-73-11.718A9.862,9.862,0,0,1-75.712-7.84a5.224,5.224,0,0,1,.8.616A9.973,9.973,0,0,0-73.682-8.61,7.778,7.778,0,0,0-72.044-6.9a12.82,12.82,0,0,1-3.64,1.218,2.916,2.916,0,0,1,.49.8A13.933,13.933,0,0,0-71.26-6.328,10.987,10.987,0,0,0-67.928-4.97a3.437,3.437,0,0,1,.574-.84,10.911,10.911,0,0,1-3.08-1.078,7.064,7.064,0,0,0,2.478-3.038Zm-1.274,6.216a9.565,9.565,0,0,1-4.536,2.184,3.03,3.03,0,0,1,.546.672,10.308,10.308,0,0,0,4.788-2.52ZM-71.162-5.4A8.832,8.832,0,0,1-74.55-3.64a3.05,3.05,0,0,1,.588.616,9.422,9.422,0,0,0,3.6-2.044Zm2.646,2.884C-69.776-1.092-72.31-.2-75.124.2a3.739,3.739,0,0,1,.546.84c2.954-.518,5.558-1.512,6.944-3.164Zm7.952-5.908h-4.788V1.064h.98v-8.54h2.786V-.224c0,.168-.07.224-.224.224s-.686.014-1.246-.014a4.173,4.173,0,0,1,.294.994A4.209,4.209,0,0,0-61.026.8c.364-.168.462-.462.462-1.008Zm-1.33,5.292A21.755,21.755,0,0,0-63.266-5.88l-.812.294a19.3,19.3,0,0,1,1.33,2.828Zm7.546-5.292h-4.984V1.064h.98v-8.54h2.982V-.182c0,.168-.056.224-.238.224-.154,0-.728.014-1.33-.014a3.778,3.778,0,0,1,.308.98A4.642,4.642,0,0,0-54.81.826c.35-.168.462-.448.462-1.008Zm-1.414,5.362A22.593,22.593,0,0,0-57.2-5.754l-.77.322a26.917,26.917,0,0,1,1.4,2.744Zm-10.346-7.8v1.008H-53.69v-1.008ZM-45.99-6.636v3.192h-3.654V-6.636Zm1.022,4.186V-7.644h-5.684V-1.33h1.008V-2.45Zm5.278-8.274H-52.08v1.036h9.6V-.434c0,.294-.1.392-.406.406s-1.47.028-2.59-.028a5.24,5.24,0,0,1,.448,1.106,10.809,10.809,0,0,0,2.9-.2c.532-.154.714-.518.714-1.274V-9.688h1.722ZM-37.492,0h.826l.392-3.192H-34.2L-34.58,0h.84l.378-3.192h1.442v-.9h-1.33l.294-2.324h1.344v-.882h-1.246l.35-2.87h-.812l-.378,2.87H-35.77l.35-2.87h-.826l-.364,2.87h-1.428v.882h1.33L-37-4.088h-1.344v.9h1.232Zm1.33-4.088.28-2.324H-33.8l-.294,2.324ZM-23.45,0h.826l.392-3.192h2.072L-20.538,0h.84l.378-3.192h1.442v-.9h-1.33l.294-2.324h1.344v-.882h-1.246l.35-2.87h-.812l-.378,2.87h-2.072l.35-2.87H-22.2l-.364,2.87H-24v.882h1.33l-.294,2.324H-24.3v.9h1.232Zm1.33-4.088.28-2.324h2.086l-.294,2.324Zm6.79-6.272v1.036h10.5V-10.36Zm.9,4.536v1.05h8.512v-1.05Zm-1.694,4.83V.056H-4.074V-.994ZM2.688-9.842H4.942V-.756H2.688ZM6.048-.756V-9.842H9.9v-1.022H-2.03v1.022H1.582V-.756h-3.99V.252H10.22V-.756ZM-1.876-7.532A36.646,36.646,0,0,1,0-2.842l.98-.406A42.145,42.145,0,0,0-.966-7.854Zm9.268,4.62A36.057,36.057,0,0,0,9.59-7.5L8.6-7.84A28.007,28.007,0,0,1,6.482-3.262Zm10.934.154V-5.11h2.8v-.9h-2.8V-7.994h3.15v-.938H14.322v.938h3.024v1.988H14.714v.9h2.632v2.352h-3.22v.882h7.63v-.882Zm.882-1.736a10.146,10.146,0,0,1,1.358,1.582l.714-.42a8.738,8.738,0,0,0-1.414-1.526ZM13.2-.588v-9.52h9.366v9.52ZM12.166-11.074V1.078H13.2v-.7h9.366v.7h1.078V-11.074Zm25.27.434H31.374v.98h6.062Zm-7.686-.518-.168.042h-3.43V1.064h.994V-10.164h2.03c-.294.938-.728,2.142-1.134,3.15A4.1,4.1,0,0,1,29.33-4.186a1.2,1.2,0,0,1-.308.966.99.99,0,0,1-.434.126c-.238.014-.518,0-.84-.014a2.134,2.134,0,0,1,.28.91,7.3,7.3,0,0,0,.966-.014,1.682,1.682,0,0,0,.77-.266,1.944,1.944,0,0,0,.574-1.61,4.357,4.357,0,0,0-1.3-3.052c.49-1.106,1.022-2.478,1.442-3.612Zm2,6.37A11.456,11.456,0,0,1,29.974-.826a4.333,4.333,0,0,1,.84.546,14.488,14.488,0,0,0,1.89-4.3Zm6.44-1.554v-.98h-7.42v.98h2.982v6.09c0,.168-.056.224-.266.238-.182,0-.826.014-1.554-.014a4.408,4.408,0,0,1,.322,1.064,5.462,5.462,0,0,0,2.016-.21c.406-.168.518-.49.518-1.078v-6.09ZM35.742-4.55a19.855,19.855,0,0,1,1.5,4.27l.966-.336a21.252,21.252,0,0,0-1.6-4.2ZM50.064-7.266V-4.83H46.2a21.354,21.354,0,0,0,.322-2.436ZM42.126-4.83V-7.266h3.318a16.224,16.224,0,0,1-.336,2.436Zm4.886-4.928A9.986,9.986,0,0,1,45.85-8.2H42.14a15.584,15.584,0,0,0,1.372-1.554Zm1.372,9.6c-.63,0-.742-.07-.742-.49V-3.892h3.5V-8.2H47.054a13.593,13.593,0,0,0,1.428-2.016l-.7-.476-.182.056H44.142c.21-.308.406-.588.574-.882l-1.148-.21a12.761,12.761,0,0,1-4.032,4.368,3.114,3.114,0,0,1,.728.756c.294-.21.56-.406.826-.63v3.346h3.738C44.184-2.114,42.812-.714,39.676.056a2.7,2.7,0,0,1,.588.882c3.514-.952,5-2.646,5.684-4.83h.63V-.63c0,1.106.35,1.414,1.694,1.414H50.61c1.19,0,1.5-.49,1.638-2.478a2.581,2.581,0,0,1-.966-.406c-.056,1.68-.154,1.946-.756,1.946ZM58.842-4.438c-.28-.336-1.526-1.61-1.9-1.974v-.336h1.848v-.98H56.938v-2.506a13.033,13.033,0,0,0,1.708-.532l-.63-.84A20.274,20.274,0,0,1,53.7-10.5,4.079,4.079,0,0,1,54-9.688c.616-.084,1.274-.2,1.918-.322v2.282h-2.3v.98h2.114a14.68,14.68,0,0,1-2.38,4.4A5.792,5.792,0,0,1,53.9-1.4a15.1,15.1,0,0,0,2.016-3.7V1.078h1.022v-6.5a20.866,20.866,0,0,1,1.3,1.806Zm1.344-3.556H64.54v2.562H60.186ZM64.162-.042c-.294,0-.35-.056-.35-.392V-4.508h1.75V-8.932h-1.5c.378-.714.784-1.624,1.134-2.408L64.162-11.7A19.058,19.058,0,0,1,63-8.932H61.04l.784-.364a10.219,10.219,0,0,0-1.246-2.366l-.868.364a10.5,10.5,0,0,1,1.2,2.366H59.192v4.424h1.5c-.2,2.142-.672,3.892-2.9,4.816a2.543,2.543,0,0,1,.644.812C60.872,0,61.46-2,61.684-4.508h1.162V-.434c0,1.022.224,1.316,1.176,1.316h1.2C66.052.882,66.3.42,66.4-1.386a3,3,0,0,1-.882-.406c-.042,1.526-.084,1.75-.392,1.75ZM71.5-3.262l-1.358.5V-7.35h1.33v-.966H70.14V-11.55h-.966v3.234H67.7v.966h1.47v4.942c-.616.224-1.176.42-1.638.574l.336,1.022c1.092-.434,2.492-.966,3.822-1.526Zm7.49-3.794A14.255,14.255,0,0,1,77.714-3.57a44.887,44.887,0,0,1-.448-5.04h2.926v-.966H79.17l.7-.476A8.228,8.228,0,0,0,78.2-11.62l-.7.448a10.221,10.221,0,0,1,1.61,1.6H77.238c-.014-.686-.014-1.414-.014-2.142H76.23q0,1.092.042,2.142H72.058V-5.25c0,1.806-.14,4.1-1.54,5.712a3.483,3.483,0,0,1,.77.658c1.5-1.736,1.736-4.4,1.736-6.356v-.616h1.764c-.042,2.506-.1,3.4-.252,3.612-.056.126-.168.14-.336.14s-.616,0-1.092-.042a2.358,2.358,0,0,1,.238.882,9.271,9.271,0,0,0,1.26,0,.883.883,0,0,0,.714-.392c.266-.35.322-1.47.364-4.662.014-.126.014-.42.014-.42H73.024V-8.61H76.3a38.223,38.223,0,0,0,.672,6.272A9.363,9.363,0,0,1,74.214.308a3.911,3.911,0,0,1,.728.714,10.248,10.248,0,0,0,2.338-2.2C77.714.14,78.3.924,79.086.924c.91,0,1.2-.644,1.358-2.744a2.179,2.179,0,0,1-.77-.532c-.056,1.61-.2,2.3-.462,2.3-.476,0-.882-.784-1.218-2.128A15.891,15.891,0,0,0,79.954-6.9ZM82.32,0h.826l.392-3.192H85.61L85.232,0h.84l.378-3.192h1.442v-.9h-1.33l.294-2.324H88.2v-.882H86.954l.35-2.87h-.812l-.378,2.87H84.042l.35-2.87h-.826L83.2-7.294H81.774v.882H83.1L82.81-4.088H81.466v.9H82.7Zm1.33-4.088.28-2.324h2.086l-.294,2.324Z" transform="translate(88.116 11.732)" fill="url(#linear-gradient)"/>
</svg>
