<svg id="Group_99" data-name="Group 99" xmlns="http://www.w3.org/2000/svg" xmlns:xlink="http://www.w3.org/1999/xlink" width="214.938" height="19.134" viewBox="0 0 214.938 19.134">
  <defs>
    <linearGradient id="linear-gradient" x1="-5.294" y1="-3.011" x2="4.479" y2="4.075" gradientUnits="objectBoundingBox">
      <stop offset="0" stop-color="#f5cfb3"/>
      <stop offset="0.516" stop-color="#ecc899"/>
      <stop offset="0.527" stop-color="#f8e8ca"/>
      <stop offset="0.833" stop-color="#f2bd8b"/>
      <stop offset="1" stop-color="#f69570"/>
    </linearGradient>
  </defs>
  <path id="Path_61" data-name="Path 61" d="M578.424,28.4c.752,0,1.51.063,2.268.063.794,0,1.582-.063,2.374-.063v.517h-.229a4.163,4.163,0,0,0-2.857,1.53l-2.807,2.971,4.554,5.591a2.111,2.111,0,0,0,1.629.949v.525c-.585,0-1.212-.042-1.821-.042-.566,0-1.113.042-1.685.042a7.784,7.784,0,0,0-.919-1.3L575.108,34.5l3.725-4.056c.22-.218.78-.806.78-1.168,0-.345-.769-.362-1-.362h-.192Zm-7.211,11.558h.247c.642,0,1.314-.093,1.314-.983V29.905c0-.905-.672-.987-1.314-.987h-.247V28.4c.707,0,1.769.063,2.679.063.956,0,2.1-.063,2.833-.063v.517h-.218c-.531,0-1.455.017-1.455.987v9.071c0,.966.924.983,1.455.983h.218v.525c-.738,0-1.877-.084-2.833-.084-.91,0-1.971.084-2.679.084Z" transform="translate(-529.752 -22.827)" fill="url(#linear-gradient)"/>
  <path id="Path_62" data-name="Path 62" d="M581.5,39.959h.251c.636,0,1.312-.093,1.312-.983V29.905c0-.905-.676-.987-1.312-.987H581.5V28.4c.7,0,1.753.063,2.626.063.9,0,1.962-.063,2.785-.063v.517h-.246c-.63,0-1.306.082-1.306.987v9.071c0,.89.676.983,1.306.983h.246v.525c-.843,0-1.908-.084-2.8-.084-.868,0-1.914.084-2.615.084Z" transform="translate(-524.123 -22.827)" fill="url(#linear-gradient)"/>
  <path id="Path_63" data-name="Path 63" d="M598.906,37.067l.032-.032V30.543a1.446,1.446,0,0,0-1.546-1.625H597V28.4c.845,0,1.657.063,2.493.063.716,0,1.445-.063,2.172-.063v.517H601.4c-.729,0-1.572.141-1.572,2.191V38.99a11.8,11.8,0,0,0,.1,1.744h-.665L590.118,30.8v7.134c0,1.506.3,2.024,1.673,2.024h.3v.525c-.772,0-1.527-.084-2.3-.084s-1.614.084-2.411.084v-.525h.265c1.207,0,1.582-.812,1.582-2.205V30.467a1.567,1.567,0,0,0-1.609-1.549h-.237V28.4c.689,0,1.376.063,2.055.063.522,0,1.035-.063,1.571-.063Z" transform="translate(-520.903 -22.827)" fill="url(#linear-gradient)"/>
  <path id="Path_64" data-name="Path 64" d="M567.628,33.015c-1.647-.812-3.194-1.574-3.194-3.46a2.536,2.536,0,0,1,2.649-2.75,2.627,2.627,0,0,1,2.833,2.382l.022.085h.72l-.385-3.048-.735-.108a13.519,13.519,0,0,0-2.135-.229c-3.076,0-4.981,1.705-4.981,4.463,0,2.849,1.972,3.853,3.733,4.749,1.538.788,3,1.532,3,3.423a2.837,2.837,0,0,1-3.011,2.85,3.8,3.8,0,0,1-3.457-3.208l-.017-.082h-.729l.48,3.423.054.019a8.761,8.761,0,0,0,3.537.771c2.645,0,5.458-1.625,5.458-4.616,0-2.768-1.956-3.737-3.842-4.662" transform="translate(-534.828 -24.204)" fill="url(#linear-gradient)"/>
  <path id="Path_65" data-name="Path 65" d="M613.393,37.5l-.006.115a4.492,4.492,0,0,1-4.487,3.76c-3.681,0-6.7-3.417-6.7-7.617,0-5.49,3.994-6.95,6.338-6.95,2.733,0,4.389,1.227,4.78,3.562l.011.088h.775l-.248-3.361-.064-.017a16.531,16.531,0,0,0-5.416-1.192c-4.822,0-8.76,3.567-8.76,7.932,0,5.145,3.476,8.474,8.822,8.474a13.033,13.033,0,0,0,5.1-1.2c.045-.06.576-3.31.576-3.31l.009-.1Z" transform="translate(-514.202 -24.204)" fill="url(#linear-gradient)"/>
  <path id="Path_66" data-name="Path 66" d="M612.355,39.959h.237c.641,0,1.314-.093,1.314-.983V29.905c0-.905-.673-.987-1.314-.987h-.237V28.4c1.079,0,2.929.063,4.415.063s3.327-.063,4.536-.063a26.1,26.1,0,0,0,.042,2.643l-.539.144c-.085-1.131-.294-2.032-2.154-2.032h-2.471v4.537H618.3c1.055,0,1.3-.588,1.385-1.523h.54c-.029.675-.051,1.345-.051,2.023,0,.662.022,1.314.051,1.97l-.54.108c-.09-1.034-.152-1.713-1.376-1.713h-2.126V38.6c0,1.117,1.035,1.117,2.163,1.117,2.126,0,3.064-.141,3.61-2.112l.489.118c-.237.928-.439,1.843-.6,2.764-1.134,0-3.172-.084-4.779-.084s-3.712.084-4.711.084Z" transform="translate(-507.229 -22.827)" fill="url(#linear-gradient)"/>
  <path id="Path_67" data-name="Path 67" d="M623,30.174c0-1.24-.662-1.257-1.379-1.257h-.207V28.4c.758,0,1.693.065,2.819.065,1.063,0,1.956-.065,2.662-.065v.517h-.22c-.709,0-1.41.017-1.41,1.257v5.981c0,2.194.828,3.711,3.366,3.711,2.346,0,3.378-1.45,3.378-3.788v-5.9c0-1.24-.685-1.257-1.277-1.257h-.356V28.4c.707,0,1.431.065,2.149.065.684,0,1.362-.065,2.06-.065v.517h-.376c-.484,0-1.138.017-1.138,1.257v5.52c0,3.921-2.134,5.038-4.769,5.038-3.407,0-5.3-1.205-5.3-4.308Z" transform="translate(-502.272 -22.827)" fill="url(#linear-gradient)"/>
  <path id="Path_68" data-name="Path 68" d="M634.409,29.456c-1.336,0-1.385.311-1.651,1.572h-.539c.074-.481.17-.964.218-1.467a9.868,9.868,0,0,0,.115-1.473h.416c.149.521.58.506,1.063.506h9.147c.491,0,.924-.02.97-.546l.424.084c-.07.463-.136.932-.19,1.4s-.042.93-.042,1.4l-.532.189c-.032-.642-.119-1.662-1.312-1.662h-2.909v9.21c0,1.332.628,1.486,1.464,1.486h.347v.525c-.684,0-1.931-.082-2.9-.082-1.063,0-2.307.082-3,.082v-.525h.34c.973,0,1.467-.093,1.467-1.456v-9.24Z" transform="translate(-496.354 -23.02)" fill="url(#linear-gradient)"/>
  <path id="Path_69" data-name="Path 69" d="M642.577,39.959h.249c.631,0,1.3-.093,1.3-.983V29.905c0-.905-.673-.987-1.3-.987h-.249V28.4c.692,0,1.758.063,2.617.063.888,0,1.962-.063,2.8-.063v.517h-.252c-.641,0-1.311.082-1.311.987v9.071c0,.89.67.983,1.311.983h.252v.525c-.862,0-1.925-.084-2.8-.084s-1.92.084-2.612.084Z" transform="translate(-490.684 -22.827)" fill="url(#linear-gradient)"/>
  <path id="Path_70" data-name="Path 70" d="M659.663,32.047c-.5-1.67-1.307-3.047-3.972-3.047-2.909,0-4.444,2.222-4.444,5.252,0,2.889,1.5,5.82,4.873,5.82a3.609,3.609,0,0,0,3.615-2.892l.5.077a17.489,17.489,0,0,0-.439,2.8,10.748,10.748,0,0,1-4.06.775c-3.994,0-6.964-2.125-6.964-6.471,0-3.873,3.217-6.128,6.867-6.128,2.071,0,2.748.628,4.424.867a19.9,19.9,0,0,0,.135,2.888Z" transform="translate(-487.295 -22.921)" fill="url(#linear-gradient)"/>
  <path id="Path_71" data-name="Path 71" d="M664.293,30.492h-.029l-1.659,4.9h3.335Zm-2.581,7.675a7.01,7.01,0,0,0-.388,1.334c0,.52.736.613,1.328.613h.192v.525c-.706-.042-1.433-.084-2.148-.084-.644,0-1.267.042-1.924.084v-.525h.11A1.62,1.62,0,0,0,660.431,39l2.841-7.949a13.121,13.121,0,0,0,.645-2.146,10.1,10.1,0,0,0,1.626-.747.339.339,0,0,1,.142-.036c.049,0,.077,0,.108.053.068.142.107.291.181.435l3.26,9.05c.2.6.418,1.243.645,1.772a1.14,1.14,0,0,0,1.176.689h.108v.525c-.8-.042-1.6-.084-2.443-.084-.879,0-1.769.042-2.662.084v-.525h.192c.4,0,1.091-.067,1.091-.5A5.289,5.289,0,0,0,667,38.363l-.7-2h-4.017Z" transform="translate(-481.818 -22.983)" fill="url(#linear-gradient)"/>
  <path id="Path_72" data-name="Path 72" d="M673.094,38.789c0,.689.5.89,1.063.969a13.342,13.342,0,0,0,2.346-.043,2.629,2.629,0,0,0,1.707-.925,4.143,4.143,0,0,0,.54-1.247h.523c-.209.983-.435,1.956-.662,2.942-1.561,0-3.114-.084-4.675-.084-1.58,0-3.132.084-4.692.084v-.525h.251c.639,0,1.334-.093,1.334-1.156v-8.9c0-.9-.695-.987-1.334-.987h-.251V28.4c.939,0,1.858.063,2.8.063.908,0,1.8-.063,2.71-.063v.517H674.3c-.67,0-1.206.017-1.206.938Z" transform="translate(-476.085 -22.827)" fill="url(#linear-gradient)"/>
  <path id="Path_73" data-name="Path 73" d="M684.891,31.058a2.241,2.241,0,0,0-2.092-2.2,1.979,1.979,0,0,0-2.18,2.173c0,2.877,5.325,2.013,5.325,6.167,0,2.4-2.027,3.632-4.307,3.632a6.526,6.526,0,0,1-2.821-.775c-.087-.882-.2-1.75-.294-2.632l.489-.1c.22,1.467,1.065,2.75,2.748,2.75a2,2,0,0,0,2.193-1.965c0-3.076-5.223-2.122-5.223-6.3,0-2.244,1.639-3.581,3.926-3.581.5,0,2,.195,2.558.266a19.157,19.157,0,0,0,.178,2.479Z" transform="translate(-471.006 -22.921)" fill="url(#linear-gradient)"/>
  <path id="Path_74" data-name="Path 74" d="M563.239,43.618h-18.49v-18.5h18.49Zm-.1-18.819H544.42V43.933h19.145V24.8Z" transform="translate(-544.42 -24.799)" fill="url(#linear-gradient)"/>
  <path id="Path_75" data-name="Path 75" d="M550.842,31.365c-1.628,1.354-2.691,2.977-2.117,4.033.614,1.116,3.689.989,6.182-.262-2.408,1.764-7.253,3.072-8.412.11-1.051-2.753,2.109-5.727,4-7.128a22.689,22.689,0,0,1,5.049-2.6h-10.4V39.761a15.1,15.1,0,0,0,11.2-3.18c1.631-1.354,2.694-2.973,2.109-4.026-.6-1.122-3.689-1-6.179.257,2.423-1.766,7.259-3.076,8.4-.115,1.063,2.758-2.1,5.73-3.994,7.126a22.034,22.034,0,0,1-5.046,2.6H562.05V28.179a15.172,15.172,0,0,0-11.208,3.186" transform="translate(-544.023 -24.404)" fill="url(#linear-gradient)"/>
</svg>
