<svg xmlns="http://www.w3.org/2000/svg" width="18.585" height="14.724" viewBox="0 0 18.585 14.724">
  <path id="iconmonstr-wechat-1" d="M16.651,15.372a4.283,4.283,0,0,0,1.934-3.456c0-2.524-2.507-4.57-5.6-4.57s-5.6,2.047-5.6,4.57,2.507,4.571,5.6,4.571a6.734,6.734,0,0,0,1.828-.251l.164-.025a.6.6,0,0,1,.3.084l1.226.694.108.034a.185.185,0,0,0,.187-.183l-.03-.134-.253-.922-.019-.117a.362.362,0,0,1,.156-.3ZM6.718,2.3C3.008,2.3,0,4.755,0,7.785a5.139,5.139,0,0,0,2.321,4.146.434.434,0,0,1,.189.357l-.023.14-.3,1.107-.036.16a.222.222,0,0,0,.224.22l.13-.041,1.471-.833a.714.714,0,0,1,.356-.1l.2.029a8.1,8.1,0,0,0,2.193.3l.369-.009a4.162,4.162,0,0,1-.225-1.344c0-2.763,2.743-5,6.126-5l.365.009C12.846,4.3,10.069,2.3,6.718,2.3Zm4.4,8.886a.732.732,0,1,1,.747-.732A.739.739,0,0,1,11.121,11.186Zm3.732,0a.732.732,0,1,1,.746-.732.739.739,0,0,1-.746.732ZM4.478,6.907a.879.879,0,1,1,.9-.878A.887.887,0,0,1,4.478,6.907Zm4.478,0a.879.879,0,1,1,.9-.878.887.887,0,0,1-.9.878Z" transform="translate(0 -2.3)" fill="#51c332" fill-rule="evenodd"/>
</svg>
